<svg width="41" height="41" fill="none" xmlns="http://www.w3.org/2000/svg">
  <path d="M34.57.64H6.17A5.88 5.88 0 0 0 .3 6.51v28.32a5.88 5.88 0 0 0 5.89 5.87h28.4a5.88 5.88 0 0 0 5.88-5.87V6.51A5.88 5.88 0 0 0 34.57.64Zm3.54 34.2a3.53 3.53 0 0 1-3.54 3.51H6.17a3.53 3.53 0 0 1-3.52-3.52V6.51A3.53 3.53 0 0 1 6.18 3h28.4a3.53 3.53 0 0 1 3.53 3.52v28.32Z" fill="#070707" stroke="#070707" stroke-width=".5"/>
  <mask id="a" fill="#fff">
    <path d="M31.42 29.68h-4.31v-7.2c0-.5-.04-1-.16-1.48-.52-2-2.74-1.88-3.63-.93a2.47 2.47 0 0 0-.75 1.68l-.01.47v7.45h-4.3V16.32h4.3v1.8l.03.01.1-.12c.43-.6.92-1.13 1.58-1.5.73-.4 1.53-.53 2.36-.5.89.02 1.74.22 2.5.7a4.61 4.61 0 0 1 1.93 2.6c.28.85.37 1.72.37 2.6v7.62l-.01.16Z"/>
  </mask>
  <path d="M31.42 29.68h-4.31v-7.2c0-.5-.04-1-.16-1.48-.52-2-2.74-1.88-3.63-.93a2.47 2.47 0 0 0-.75 1.68l-.01.47v7.45h-4.3V16.32h4.3v1.8l.03.01.1-.12c.43-.6.92-1.13 1.58-1.5.73-.4 1.53-.53 2.36-.5.89.02 1.74.22 2.5.7a4.61 4.61 0 0 1 1.93 2.6c.28.85.37 1.72.37 2.6v7.62l-.01.16Z" fill="#070707"/>
  <path d="M31.42 29.68v.03h.03v-.03h-.03Zm-4.31 0h-.03v.03h.03v-.03Zm0-7.2h.03-.03ZM26.95 21h.03-.03Zm-3.63-.93.02.02-.02-.02Zm-.75 1.68h-.03.03Zm-.01.47h.03-.03Zm0 7.46v.03h.03v-.03h-.03Zm-4.3 0h-.03v.03h.03v-.03Zm0-13.37v-.03h-.03v.03h.03Zm4.3 0h.03v-.03h-.03v.03Zm0 1.8h-.03v.02h.02v-.02Zm.03.01-.01.03h.02l.02-.01-.03-.02Zm.1-.12.02.01-.03-.01Zm1.58-1.5.01.03-.01-.02Zm2.36-.5v-.04.03Zm2.5.7.02-.02-.02.02Zm1.93 2.6-.03.02.03-.01Zm.37 2.6h.03-.03Zm0 7.62h-.03.03Zm-.01.13H27.1v.06H31.43v-.06Zm-4.28.03V29.47h-.06V29.68h.06Zm0-.2v-7h-.06v7h.06Zm0-7c0-.5-.04-1-.16-1.48l-.06.01c.12.48.16.97.16 1.47h.06ZM26.98 21a2 2 0 0 0-1.7-1.6c-.74-.1-1.53.17-1.98.65l.04.04a2.3 2.3 0 0 1 1.93-.63c.72.1 1.4.57 1.65 1.55l.06-.01Zm-3.68-.95a2.5 2.5 0 0 0-.76 1.7h.06c.01-.66.3-1.19.74-1.66l-.04-.04Zm-.76 1.7-.01.47h.06l.01-.47h-.06Zm-.01.47v7.25h.06v-7.25h-.06Zm0 7.25V29.68h.06V29.47h-.06Zm.03.18H18.25v.06H22.56v-.06Zm-4.27.03V16.3h-.06V29.68h.06Zm-.03-13.34H22.56v-.06H18.26v.06Zm4.27-.03V18.1h.06V16.31h-.06Zm.02 1.82.03.02.02-.06-.03-.01-.02.05Zm.07 0 .09-.12-.05-.03-.1.12.06.04Zm.09-.12a4.8 4.8 0 0 1 1.57-1.48l-.03-.05c-.66.36-1.16.9-1.59 1.5l.05.03Zm1.57-1.48a4.5 4.5 0 0 1 2.34-.5v-.07a4.57 4.57 0 0 0-2.37.52l.03.05Zm2.34-.5c.9.02 1.74.22 2.5.7l.03-.05a4.9 4.9 0 0 0-2.52-.72v.07Zm2.5.7c.97.61 1.57 1.5 1.91 2.59l.06-.02c-.35-1.09-.95-2-1.94-2.62l-.03.05Zm1.91 2.59c.28.84.37 1.7.37 2.59h.06c0-.89-.1-1.76-.37-2.61l-.06.02Zm.37 2.59v7.61h.06v-7.61h-.06Zm0 7.61-.01.16h.06v-.16h-.05Z" fill="#070707" mask="url(#a)"/>
  <path d="M15.61 29.67H11.35V16.33H15.61V29.67ZM13.67 9.67c.67 0 1.24.24 1.64.64.4.41.65.99.65 1.66 0 .67-.24 1.24-.65 1.65-.4.4-.99.64-1.67.64a2.2 2.2 0 0 1-2.29-2.3c0-1.33.96-2.29 2.32-2.29Z" fill="#070707" stroke="#070707" stroke-width=".03"/>
</svg>
